# xmcd CD database file
#
# Track frame offsets:
#	183
#	48678
#	90390
#	128683
#	148593
#	175803
#
# Disc length: 2634 seconds
#
# Revision: 0
# Processed by: cddbd v1.5.1PL0 Copyright (c) Steve Scherf et al.
# Submitted via: CDex 1.51
#
DISCID=4b0a4806
DTITLE=Lee Konitz - Dizionario Enciclopedico del Jazz - Volume 71
DYEAR=1992
DGENRE=Jazz
TTITLE0=What's New
TTITLE1=My Melancholy Baby
TTITLE2=All The Things You Are
TTITLE3=Easy Living
TTITLE4=Background Music
TTITLE5=Body And Soul
EXTD=YEAR: 1992
EXTT0=
EXTT1=
EXTT2=
EXTT3=
EXTT4=
EXTT5=
PLAYORDER=
